<svg width="421" height="181" viewBox="0 0 421 181" fill="none" xmlns="http://www.w3.org/2000/svg">
<path d="M56.1651 179L177.578 2" stroke="#171717" stroke-width="5"/>
<path d="M126.38 143.907H193.582V127.251H144.484V100.312H190.106V83.6567H144.484V59.6144H193.582V42.9587H126.38V143.907Z" fill="#171717"/>
<path d="M230.421 143.907H244.759L273.871 72.5045H255.042L237.518 121.313L220.282 72.5045H201.309L230.421 143.907Z" fill="#171717"/>
<path d="M342.023 107.264C342.023 87.4223 331.306 71.0562 309.146 71.0562C285.394 71.0562 275.256 89.8845 275.256 108.568C275.256 127.686 285.683 145.355 310.305 145.355C322.326 145.355 331.74 141.155 339.561 132.465L327.54 121.892C322.616 127.541 316.822 129.569 310.45 129.569C299.153 129.569 293.36 123.341 292.635 113.927H341.589C341.879 111.609 342.023 109.437 342.023 107.264ZM292.491 100.168C293.504 93.0708 298.429 85.5395 309.002 85.5395C318.126 85.5395 325.078 91.0431 325.368 100.168H292.491Z" fill="#171717"/>
<path d="M395.257 71.0562C386.567 71.0562 378.746 73.9529 373.677 80.76V72.5045H356.297V143.907H373.677V115.375C373.677 102.63 373.677 86.2636 389.898 86.2636C403.078 86.2636 403.078 97.2709 403.078 102.195V143.907H420.458V97.8503C420.458 80.9048 411.334 71.0562 395.257 71.0562Z" fill="#171717"/>
<path d="M80.1791 145.355H0.578339V42.9587H149.785L80.1791 145.355Z" fill="#171717"/>
<path d="M25.4461 59.0351H43.695V42.9587H25.4461V59.0351ZM25.8806 145.355H43.2605V72.5045H25.8806V145.355Z" fill="white"/>
<path d="M85.9522 145.355C99.4216 145.355 113.76 138.114 113.76 121.458C113.76 95.3881 76.3933 101.761 76.3933 90.8983C76.3933 87.5671 79.8692 84.8153 85.5177 84.8153C93.3387 84.8153 97.2492 89.45 99.7113 93.9398L113.181 86.5533C107.822 76.8495 98.4078 71.0562 86.097 71.0562C72.3379 71.0562 59.8823 78.153 59.8823 91.9121C59.8823 118.416 96.6698 110.451 96.6698 122.472C96.6698 126.237 93.1938 130.872 85.0832 130.872C75.5243 130.872 71.7586 124.355 69.8758 119.141L55.9719 125.368C59.4478 136.231 70.8896 145.355 85.9522 145.355Z" fill="white"/>
</svg>
